<?xml version="1.0" standalone="no"?>
<!DOCTYPE svg PUBLIC "-//W3C//DTD SVG 20010904//EN"
 "http://www.w3.org/TR/2001/REC-SVG-20010904/DTD/svg10.dtd">
<svg version="1.0" xmlns="http://www.w3.org/2000/svg"
 width="2788.000000pt" height="2788.000000pt" viewBox="0 0 2788.000000 2788.000000"
 preserveAspectRatio="xMidYMid meet">
<metadata>
Created by potrace 1.14, written by Peter Selinger 2001-2017
</metadata>
<g transform="translate(0.000000,2788.000000) scale(0.100000,-0.100000)"
fill="#000000" stroke="none">
<path d="M17988 23082 c-8 -2 -25 -22 -38 -45 -13 -23 -42 -73 -65 -112 -23
-38 -55 -95 -72 -125 -17 -30 -46 -82 -65 -115 -20 -33 -46 -78 -59 -101 -104
-180 -151 -261 -159 -274 -6 -8 -116 -199 -246 -425 -130 -225 -297 -516 -372
-645 -74 -129 -186 -323 -247 -430 -62 -107 -133 -230 -159 -273 -25 -43 -46
-82 -46 -87 0 -4 -44 -8 -97 -7 -129 0 -288 -11 -398 -28 -258 -39 -570 -142
-790 -260 -81 -44 -274 -163 -292 -181 -7 -7 -28 -22 -48 -34 -19 -12 -35 -26
-35 -31 0 -5 -5 -9 -11 -9 -6 0 -16 -6 -23 -12 -8 -7 -40 -36 -72 -64 -205
-180 -369 -376 -515 -619 l-66 -110 -1517 -1 c-834 -1 -1523 -5 -1531 -8 -8
-3 -15 -10 -15 -15 0 -6 -27 -56 -60 -111 -33 -55 -60 -103 -60 -106 0 -3 -8
-18 -19 -32 -10 -15 -29 -47 -43 -72 -27 -49 -116 -203 -161 -278 -15 -26 -32
-56 -37 -67 -6 -11 -19 -35 -31 -54 -11 -19 -54 -93 -96 -165 -41 -72 -83
-144 -93 -161 -10 -16 -67 -115 -127 -220 -60 -104 -246 -426 -412 -715 -652
-1127 -752 -1302 -778 -1348 -14 -26 -29 -51 -33 -57 -4 -5 -17 -27 -29 -48
-29 -52 -191 -331 -256 -443 l-54 -91 -1626 0 -1627 0 -23 36 c-12 20 -84 142
-158 271 -74 129 -144 251 -156 270 -11 19 -24 42 -28 50 -3 8 -14 26 -23 40
-10 14 -30 48 -44 75 -15 28 -38 68 -52 90 -13 22 -27 47 -31 55 -4 8 -16 31
-28 50 -20 31 -188 323 -238 410 -46 83 -74 131 -129 223 -32 54 -58 99 -58
101 0 2 -18 34 -40 70 -22 36 -40 69 -40 73 0 3 -6 14 -14 22 -8 9 -26 39 -41
66 -14 28 -36 66 -47 85 -38 65 -300 518 -338 585 -27 48 -165 286 -263 455
-124 214 -126 218 -160 280 -16 30 -35 62 -42 70 -7 8 -14 20 -16 25 -13 34
-123 215 -131 215 -5 0 -46 -22 -91 -49 -110 -65 -729 -422 -792 -456 -27 -15
-57 -34 -66 -41 -8 -8 -18 -14 -22 -14 -5 0 -336 -189 -367 -210 -8 -6 -22
-13 -30 -17 -8 -4 -58 -32 -110 -63 -52 -31 -102 -59 -110 -63 -8 -4 -31 -17
-50 -28 -30 -18 -184 -107 -275 -159 -16 -10 -46 -27 -66 -39 l-36 -21 128
-223 c71 -122 132 -229 136 -237 4 -8 31 -55 60 -103 29 -48 53 -90 53 -92 0
-3 29 -53 63 -112 35 -60 160 -274 277 -478 118 -203 228 -395 245 -425 165
-286 378 -656 404 -700 17 -30 36 -62 41 -70 6 -8 13 -22 17 -30 4 -8 17 -32
31 -53 13 -22 34 -58 47 -80 13 -23 80 -141 150 -262 70 -121 138 -238 150
-260 13 -22 71 -123 130 -225 157 -269 155 -267 149 -285 -4 -9 -67 -120 -140
-247 -74 -127 -134 -234 -134 -239 0 -5 -5 -9 -11 -9 -5 0 -8 -4 -4 -9 3 -5 1
-12 -4 -15 -5 -3 -35 -52 -67 -108 -32 -57 -65 -115 -74 -129 -8 -15 -44 -77
-80 -138 -36 -62 -74 -129 -86 -149 -11 -20 -46 -80 -76 -132 -30 -52 -80
-138 -110 -190 l-55 -95 -114 -1 c-275 -3 -473 -33 -722 -109 -413 -125 -763
-337 -1070 -650 -181 -183 -324 -385 -447 -628 -189 -375 -273 -744 -265
-1162 4 -237 10 -290 51 -490 125 -613 491 -1166 1019 -1541 78 -55 67 -48
204 -127 299 -172 628 -277 976 -313 33 -3 74 -7 90 -9 17 -2 87 -4 156 -4
120 -1 126 -2 137 -24 19 -38 77 -139 120 -211 23 -37 42 -69 42 -71 0 -1 30
-54 66 -116 37 -63 136 -235 221 -384 85 -148 168 -290 183 -315 15 -25 39
-65 53 -90 28 -51 47 -85 207 -360 62 -107 124 -215 138 -240 13 -25 28 -49
32 -55 4 -5 19 -30 32 -55 14 -25 92 -160 173 -300 81 -140 168 -292 194 -337
l46 -83 2979 3 2979 2 87 150 c47 83 122 211 165 285 43 74 86 150 96 168 11
17 27 47 38 65 10 17 32 55 48 83 17 27 41 70 55 95 14 24 76 132 138 239 123
212 331 572 540 935 73 127 154 266 179 310 26 44 51 87 55 95 4 8 12 24 19
35 7 11 39 66 72 123 33 57 68 118 79 135 10 18 72 127 138 242 67 116 140
242 163 280 23 39 55 95 72 125 17 30 87 154 158 275 70 121 143 248 163 283
l36 62 1631 0 1631 0 17 -32 c21 -42 77 -140 87 -153 4 -5 19 -30 32 -55 14
-25 49 -85 78 -135 29 -49 62 -108 75 -130 31 -57 55 -97 115 -200 29 -49 60
-103 70 -120 30 -51 143 -249 154 -270 6 -11 37 -63 67 -115 31 -52 118 -203
194 -335 75 -132 146 -252 156 -267 11 -15 19 -29 19 -32 0 -3 106 -189 236
-413 130 -224 251 -433 267 -463 17 -30 48 -83 69 -118 21 -34 38 -65 38 -68
0 -3 14 -25 30 -49 17 -24 30 -48 30 -53 0 -5 17 -35 38 -68 20 -32 44 -72 52
-89 8 -16 20 -37 26 -45 7 -8 23 -35 36 -60 39 -71 80 -144 88 -155 6 -8 89
-151 183 -315 11 -19 32 -55 46 -80 14 -25 42 -73 61 -108 l35 -62 2978 3
2979 2 84 144 c46 79 84 145 84 146 0 3 60 107 90 155 5 8 43 74 84 145 68
119 200 348 401 695 43 74 86 149 95 165 9 17 43 74 74 128 31 53 81 141 112
195 31 53 65 111 74 127 10 17 77 134 150 260 73 127 143 248 156 270 13 22
45 77 70 123 34 62 51 82 67 83 61 3 206 17 254 25 68 11 241 46 268 54 85 25
239 76 304 102 90 35 310 144 332 164 8 8 19 14 23 14 13 0 271 179 286 199 3
3 25 22 50 42 87 71 190 175 310 315 134 155 286 407 378 624 39 93 117 326
127 378 8 47 14 73 19 90 3 9 7 35 11 57 6 43 12 82 20 130 22 130 23 569 1
637 -3 7 -7 33 -10 58 -8 73 -46 247 -77 353 -71 238 -195 496 -337 702 -189
273 -466 537 -748 713 -220 137 -517 258 -764 313 -52 11 -104 23 -115 25 -11
2 -39 7 -61 10 -23 2 -52 7 -65 9 -12 3 -65 7 -118 11 -53 3 -101 11 -108 18
-10 10 -69 108 -137 231 -13 22 -56 96 -96 165 -40 69 -83 143 -95 165 -13 22
-62 108 -110 190 -49 83 -98 169 -110 192 -12 23 -27 48 -32 55 -6 7 -22 33
-35 58 -14 25 -70 124 -126 221 -56 97 -102 181 -102 187 0 7 29 60 64 119 80
136 294 508 315 548 9 17 19 32 24 33 4 2 7 7 7 12 0 5 27 54 60 110 33 56 60
104 60 106 0 3 16 30 35 60 19 30 35 56 35 58 0 3 21 40 46 83 26 43 57 97 70
120 13 23 106 183 205 355 100 172 195 338 212 368 16 30 33 60 37 65 5 6 51
85 104 177 53 92 104 180 113 197 34 56 228 394 257 445 15 28 36 62 44 76 9
14 26 43 38 65 18 35 139 244 299 520 29 50 102 175 163 280 l109 189 -18 32
c-9 18 -169 294 -355 615 -185 321 -348 604 -362 629 -13 25 -44 77 -68 116
-24 39 -44 74 -44 78 0 3 -17 35 -38 69 -32 51 -184 311 -254 435 -10 17 -26
47 -37 65 -10 17 -38 66 -61 107 -24 41 -105 182 -182 313 -76 131 -138 240
-138 242 0 1 -18 33 -41 70 -22 37 -49 82 -58 99 -23 39 -159 276 -171 296
-38 65 -77 132 -98 170 -14 25 -109 189 -210 365 -102 176 -193 334 -202 350
-10 17 -77 134 -150 260 -73 127 -136 235 -140 240 -4 6 -21 35 -37 65 -51 92
-255 443 -273 470 -10 14 -21 35 -24 48 -4 12 -13 22 -19 23 -35 2 -5926 4
-5939 1z"/>
</g>
</svg>
